<svg width="215" height="50" viewBox="0 0 215 50" fill="none" xmlns="http://www.w3.org/2000/svg">
<path d="M30.6849 0H1.80631C0.808711 0 0 0.808711 0 1.80631V21.3144C0 22.312 0.808711 23.1207 1.80631 23.1207H30.6849C31.6825 23.1207 32.4912 22.312 32.4912 21.3144V1.80631C32.4912 0.808711 31.6825 0 30.6849 0Z" fill="#0071BC"/>
<path d="M13.7614 11.6272C13.7604 10.6444 13.9825 9.67415 14.4109 8.78958C14.8392 7.90501 15.4628 7.12918 16.2344 6.52051C15.2744 5.76006 14.1195 5.28557 12.9021 5.15145C11.6847 5.01733 10.4542 5.22901 9.35165 5.76222C8.24908 6.29543 7.3191 7.12858 6.66836 8.16612C6.01762 9.20367 5.67245 10.4036 5.67245 11.6283C5.67245 12.8531 6.01762 14.053 6.66836 15.0906C7.3191 16.1281 8.24908 16.9613 9.35165 17.4945C10.4542 18.0277 11.6847 18.2394 12.9021 18.1052C14.1195 17.9711 15.2744 17.4966 16.2344 16.7362C15.4626 16.1272 14.839 15.3509 14.4106 14.466C13.9822 13.581 13.7602 12.6104 13.7614 11.6272Z" fill="#E71B26"/>
<path d="M16.2343 16.7362C17.6002 16.7362 18.7074 14.4489 18.7074 11.6273C18.7074 8.80571 17.6002 6.51836 16.2343 6.51836C14.8685 6.51836 13.7613 8.80571 13.7613 11.6273C13.7613 14.4489 14.8685 16.7362 16.2343 16.7362Z" fill="#F36523"/>
<path d="M20.2751 5.11343C18.8075 5.1104 17.3826 5.60662 16.2343 6.52057C17.0053 7.13014 17.6282 7.90632 18.0565 8.79092C18.4848 9.67551 18.7072 10.6456 18.7072 11.6284C18.7072 12.6112 18.4848 13.5813 18.0565 14.4659C17.6282 15.3505 17.0053 16.1267 16.2343 16.7362C17.0494 17.3809 18.0069 17.8212 19.0269 18.0204C20.0468 18.2196 21.0996 18.1718 22.0973 17.8811C23.0951 17.5904 24.0087 17.0652 24.7621 16.3494C25.5155 15.6336 26.0866 14.7479 26.4279 13.7663C26.7691 12.7847 26.8706 11.7357 26.7238 10.7069C26.5769 9.67816 26.1861 8.69944 25.5839 7.85251C24.9816 7.00558 24.1855 6.31503 23.262 5.83853C22.3385 5.36203 21.3143 5.11341 20.2751 5.11343Z" fill="#FA9F1B"/>
<path d="M76.2882 0H47.4096C46.412 0 45.6033 0.808711 45.6033 1.80631V21.3144C45.6033 22.312 46.412 23.1207 47.4096 23.1207H76.2882C77.2858 23.1207 78.0945 22.312 78.0945 21.3144V1.80631C78.0945 0.808711 77.2858 0 76.2882 0Z" fill="#CCCCCC"/>
<path d="M63.2608 18.1433C66.8288 18.1589 70.0734 15.2443 70.0734 11.6763C70.0734 7.78941 66.8221 5.10225 63.2608 5.10448H60.1967C56.5908 5.11117 53.6316 7.80502 53.6316 11.6852C53.6316 15.2399 56.5975 18.1522 60.2034 18.1522L63.2608 18.1433Z" fill="#004A98"/>
<path d="M61.5632 15.144V8.08826C62.2772 8.36164 62.8915 8.84523 63.3248 9.47513C63.7581 10.105 63.9901 10.8516 63.9901 11.6161C63.9901 12.3807 63.7581 13.1272 63.3248 13.7571C62.8915 14.387 62.2772 14.8706 61.5632 15.144ZM56.4342 11.6161C56.4357 10.8526 56.6677 10.1073 57.0998 9.47783C57.5319 8.84835 58.144 8.36402 58.856 8.08826V15.144C58.1432 14.8689 57.5301 14.3849 57.0972 13.7554C56.6642 13.1258 56.4316 12.3802 56.4298 11.6161H56.4342ZM60.2208 5.65086C59.0405 5.64865 57.8861 5.99663 56.9036 6.65076C55.9212 7.30489 55.1548 8.23577 54.7016 9.32558C54.2484 10.4154 54.1287 11.6152 54.3576 12.773C54.5865 13.9309 55.1538 14.9949 55.9876 15.8302C56.8214 16.6656 57.8843 17.2349 59.0418 17.4659C60.1992 17.697 61.3992 17.5795 62.4899 17.1284C63.5805 16.6772 64.5128 15.9126 65.1688 14.9314C65.8248 13.9502 66.1749 12.7964 66.1749 11.6161C66.1749 10.034 65.5464 8.51675 64.4277 7.39804C63.309 6.27934 61.7917 5.65086 60.2096 5.65086" fill="white"/>
<path d="M121.899 0H93.0205C92.0229 0 91.2142 0.808711 91.2142 1.80631V21.3144C91.2142 22.312 92.0229 23.1207 93.0205 23.1207H121.899C122.897 23.1207 123.705 22.312 123.705 21.3144V1.80631C123.705 0.808711 122.897 0 121.899 0Z" fill="#016FD0"/>
<path d="M107.457 8.338C107.457 7.94329 107.071 7.90984 106.908 7.90984H105.943V8.70818H106.777C106.958 8.70818 107.457 8.73271 107.457 8.338Z" fill="white"/>
<path d="M114.776 7.98122L114.261 9.29246H115.307L114.776 7.98122Z" fill="white"/>
<path d="M92.9716 9.24338H94.0108L93.5091 7.96782L92.9716 9.24338Z" fill="white"/>
<path d="M122.374 17.9181H120.498V17.0261H122.371C122.547 17.0261 122.817 16.9569 122.817 16.696C122.817 16.4351 122.572 16.3972 122.411 16.3972C122.155 16.3972 121.965 16.3972 121.47 16.3972C120.975 16.3972 120.355 16.1341 120.355 15.1997C120.355 14.6377 120.801 14.0468 121.774 14.0468H123.714V13.2774H104.074L103.526 14.0044L102.981 13.2774H97.3618V18.6785H102.986L103.499 17.9381L103.996 18.6785H107.441V17.4074H107.738C108.101 17.4456 108.468 17.3911 108.804 17.2491V18.6763H111.108V17.8021L111.799 18.6763H122.469C123.419 18.6763 123.725 18.2437 123.725 18.2437V17.171C123.542 17.6594 123.096 17.9181 122.374 17.9181ZM101.333 14.921H99.1815V15.552H101.271V16.3415H99.1815V17.0283H101.333V17.9203H98.198V14.049H101.333V14.921ZM105.624 17.9181H104.391L103.517 16.6358L102.6 17.9181H101.414L102.95 15.9757L101.414 14.049H102.625L103.517 15.2577L104.451 14.049H105.642L104.065 15.9891L105.624 17.9181ZM107.961 16.6202H106.699V17.9181H105.727V14.049H107.807C108.342 14.049 109.172 14.3032 109.172 15.3246C109.184 15.4906 109.161 15.6572 109.105 15.814C109.05 15.9709 108.962 16.1146 108.849 16.2361C108.735 16.3577 108.598 16.4546 108.445 16.5206C108.292 16.5867 108.127 16.6206 107.961 16.6202ZM112.08 17.9181L110.925 16.502H110.577V17.9158H109.589V14.049H111.748C111.92 14.0401 112.093 14.0675 112.255 14.1295C112.417 14.1915 112.563 14.2868 112.686 14.4091C112.808 14.5314 112.904 14.6781 112.966 14.8396C113.029 15.0012 113.056 15.174 113.048 15.3469C113.048 15.9869 112.64 16.2969 112.073 16.502L113.284 17.9181H112.08ZM116.573 17.9181H113.418V14.049H116.562V14.941H114.415V15.5565H116.506V16.3794H114.399V17.0328H116.569L116.573 17.9181ZM118.859 17.9181H116.986V17.0261H118.859C119.035 17.0261 119.305 16.9569 119.305 16.696C119.305 16.4351 119.06 16.3972 118.897 16.3972C118.643 16.3972 118.451 16.3972 117.956 16.3972C117.461 16.3972 116.852 16.1341 116.852 15.1997C116.852 14.6377 117.298 14.0468 118.27 14.0468H120.206L119.805 14.9388H118.154C118.07 14.9388 117.818 15.0168 117.818 15.2465C117.817 15.3244 117.847 15.3995 117.9 15.4566C117.953 15.5137 118.025 15.5486 118.103 15.5543L119.267 15.5677C119.406 15.5691 119.543 15.5982 119.671 15.6534C119.798 15.7087 119.913 15.7888 120.009 15.8892C120.105 15.9895 120.18 16.1081 120.23 16.2378C120.279 16.3676 120.302 16.5059 120.297 16.6447C120.3 17.4765 119.793 17.9181 118.859 17.9181Z" fill="white"/>
<path d="M106.487 11.6741V10.8289L107.156 11.6741H110.544V11.2125C110.852 11.5492 111.367 11.6741 112.027 11.6741H114.125L114.484 10.878H115.1L115.452 11.6741H118.744V10.7219L119.368 11.6741H121.707V6.2775H119.306V7.28769L118.654 6.2775H116.444V7.6378L115.849 6.2775H112.281C111.197 6.2775 110.807 6.612 110.522 6.80824V6.2775H98.6958L98.2721 7.29215L97.8796 6.2775H95.188V7.7047L94.5815 6.2775H92.3894L91.2075 8.96019V11.6741H92.7863L93.1431 10.8579L93.8255 10.8958L94.1801 11.712L99.3091 11.6763L106.487 11.6741ZM118.382 7.04462L119.908 9.45526V7.04462H120.902V10.9137H119.72L118.135 8.46067V10.9137H117.149V7.04462H118.382ZM115.41 7.04462L117.062 10.9137H115.996L115.637 10.1064H113.909L113.559 10.9137H112.526L114.177 7.04462H115.41ZM112.17 7.04462H113.206V7.98122H112.19C112.057 7.97201 111.924 7.99163 111.8 8.03872C111.676 8.08581 111.563 8.15926 111.47 8.254C111.377 8.34874 111.306 8.46253 111.261 8.58753C111.216 8.71252 111.199 8.84575 111.211 8.97803C111.211 9.90795 111.866 10.093 112.103 10.093H112.493L112.103 10.9137C111.048 10.9137 110.267 10.3116 110.267 9.00925C110.267 7.95446 110.832 7.04462 112.17 7.04462ZM108.825 7.04462H109.77V10.9137H108.825V7.04462ZM106.748 7.04462C108.336 7.04462 108.416 7.88979 108.416 8.32018C108.423 8.60933 108.322 8.89067 108.135 9.11095C107.948 9.33123 107.686 9.47515 107.4 9.51547L108.673 10.9137H107.487L106.291 9.54892H105.95V10.9137H104.967L104.955 7.04462H106.748ZM101.309 7.04462H104.402V7.92101H102.237V8.54764H104.349V9.34153H102.237V10.0574H104.402V10.9137H101.312L101.309 7.04462ZM94.7086 10.9137L94.354 10.1153H92.6347L92.2756 10.9137H91.2186L92.8688 7.08699H94.1265L95.7901 10.9137H94.7086ZM97.8306 10.9137L96.8561 8.13732V10.9137H95.8593V7.09814H97.3957L98.2877 9.53554L99.1329 7.0357H100.652V10.9137H99.7127L99.6815 8.09272L98.6735 10.9137H97.8306Z" fill="white"/>
<path d="M111.679 14.9076H110.564V15.7171H111.701C111.805 15.7131 111.904 15.6688 111.977 15.5936C112.05 15.5184 112.091 15.4181 112.091 15.3135C112.094 15.2589 112.085 15.2044 112.065 15.1535C112.045 15.1026 112.015 15.0565 111.976 15.0182C111.937 14.9799 111.89 14.9502 111.839 14.9312C111.788 14.9121 111.733 14.9041 111.679 14.9076Z" fill="white"/>
<path d="M107.76 14.9076H106.685V15.8331H107.76C107.822 15.8359 107.884 15.8258 107.942 15.8034C108 15.781 108.052 15.7468 108.096 15.7029C108.14 15.6591 108.174 15.6065 108.197 15.5487C108.219 15.4909 108.229 15.429 108.226 15.367C108.228 15.3056 108.217 15.2444 108.195 15.1874C108.172 15.1304 108.137 15.0787 108.094 15.0355C108.05 14.9924 107.998 14.9588 107.94 14.9368C107.883 14.9148 107.822 14.9048 107.76 14.9076Z" fill="white"/>
<path d="M121.67 14.9411C121.587 14.9411 121.333 15.0191 121.333 15.2488C121.333 15.3267 121.362 15.4018 121.415 15.4589C121.468 15.516 121.541 15.5509 121.618 15.5565L122.785 15.5699C122.987 15.5696 123.185 15.63 123.353 15.7433C123.52 15.8566 123.65 16.0176 123.726 16.2055V14.1293L123.32 14.9411H121.67Z" fill="white"/>
<path d="M167.523 0H138.644C137.647 0 136.838 0.808711 136.838 1.80631V21.3144C136.838 22.312 137.647 23.1207 138.644 23.1207H167.523C168.52 23.1207 169.329 22.312 169.329 21.3144V1.80631C169.329 0.808711 168.52 0 167.523 0Z" fill="#F3F3F3"/>
<path fill-rule="evenodd" clip-rule="evenodd" d="M149.644 14.3843L150.562 8.70576H152.03L151.113 14.3843H149.644Z" fill="#00529B"/>
<path fill-rule="evenodd" clip-rule="evenodd" d="M156.436 8.84431C156.016 8.68241 155.569 8.60036 155.119 8.60235C153.667 8.60235 152.648 9.37662 152.641 10.4813C152.629 11.2973 153.372 11.7512 153.928 12.0232C154.483 12.2952 154.689 12.4821 154.689 12.729C154.689 13.1095 154.23 13.2847 153.808 13.2847C153.33 13.2981 152.857 13.1944 152.429 12.9827L152.236 12.8926L152.03 14.1674C152.552 14.371 153.107 14.4751 153.667 14.4745C155.209 14.4745 156.212 13.7136 156.224 12.5355C156.224 11.888 155.837 11.3924 154.991 10.9886C154.478 10.7283 154.156 10.553 154.156 10.2877C154.156 10.0224 154.43 9.80214 155.009 9.80214C155.386 9.79045 155.76 9.86463 156.104 10.0191L156.236 10.0791L156.436 8.85265V8.84431Z" fill="#00529B"/>
<path fill-rule="evenodd" clip-rule="evenodd" d="M158.386 12.3736C158.508 12.0398 158.973 10.7833 158.973 10.7833C158.973 10.7833 159.093 10.4496 159.167 10.241L159.269 10.7299C159.269 10.7299 159.547 12.0882 159.602 12.3736H158.386ZM160.2 8.70244H159.063C158.713 8.70244 158.448 8.80423 158.296 9.17301L156.115 14.3843H157.655L157.964 13.5333H159.849C159.891 13.7319 160.025 14.3843 160.025 14.3843H161.385L160.2 8.71078V8.70244Z" fill="#00529B"/>
<path fill-rule="evenodd" clip-rule="evenodd" d="M148.418 8.70576L146.979 12.5788L146.822 11.7928C146.555 10.8867 145.723 9.90222 144.785 9.41329L146.103 14.3793H147.655L149.963 8.70576H148.418Z" fill="#00529B"/>
<path fill-rule="evenodd" clip-rule="evenodd" d="M145.644 8.70576H143.283L143.258 8.8209C145.094 9.29148 146.322 10.4279 146.824 11.7928L146.309 9.18301C146.223 8.8209 145.965 8.71745 145.641 8.70576H145.644Z" fill="#F5AB00"/>
<path d="M169.396 17.1711H136.837V21.4081C136.837 22.3934 137.636 23.1921 138.621 23.1921H167.612C168.597 23.1921 169.396 22.3934 169.396 21.4081V17.1711Z" fill="#F5AB00"/>
<path d="M167.612 0H138.622C137.637 0 136.838 0.798726 136.838 1.78401V5.79802H169.396V1.78401C169.396 0.798726 168.597 0 167.612 0Z" fill="#00529B"/>
<path d="M213.194 0H184.316C183.318 0 182.509 0.808711 182.509 1.80631V21.3144C182.509 22.312 183.318 23.1207 184.316 23.1207H213.194C214.192 23.1207 215 22.312 215 21.3144V1.80631C215 0.808711 214.192 0 213.194 0Z" fill="#221F20"/>
<path d="M191.489 9.01411C191.723 8.93589 191.973 8.89386 192.233 8.89386C193.367 8.89386 194.314 9.6994 194.531 10.7705L196.138 10.4422C195.77 8.62304 194.161 7.2532 192.233 7.2532C191.791 7.2532 191.366 7.32511 190.969 7.45796L191.489 9.01411Z" fill="#FBC707"/>
<path d="M189.592 14.2243L190.68 12.9951C190.194 12.565 189.888 11.9377 189.888 11.2387C189.888 10.54 190.194 9.913 190.679 9.48335L189.591 8.25402C188.767 8.98421 188.247 10.0508 188.247 11.2387C188.247 12.4272 188.768 13.4941 189.592 14.2243Z" fill="#38A7E4"/>
<path d="M194.53 11.7094C194.313 12.7793 193.367 13.5836 192.233 13.5836C191.973 13.5836 191.722 13.5416 191.489 13.4629L190.968 15.0194C191.365 15.1524 191.791 15.2238 192.233 15.2238C194.16 15.2238 195.768 13.8569 196.138 12.0386L194.53 11.7094Z" fill="#EF3120"/>
<path d="M200.757 12.5619C200.757 12.5627 200.756 12.563 200.756 12.5637L200.71 12.5325C200.579 12.7464 200.373 12.9194 200.114 13.0315C199.621 13.2462 199.164 13.1911 198.835 12.9032L198.805 12.9488L198.805 12.9481L198.244 13.7856C198.383 13.882 198.533 13.9641 198.689 14.0294C199.308 14.2861 199.941 14.2741 200.564 14.0031C201.015 13.8081 201.368 13.51 201.61 13.1323L200.757 12.5619ZM199.01 10.4958C198.489 10.7197 198.22 11.2082 198.276 11.7813L200.482 10.8315C200.103 10.3854 199.609 10.2378 199.01 10.4958ZM197.545 13.047C197.492 12.9617 197.42 12.825 197.377 12.7247C197.123 12.1337 197.11 11.5221 197.325 10.9349C197.562 10.2908 198.014 9.79794 198.597 9.54694C199.331 9.23109 200.142 9.29369 200.845 9.71057C201.291 9.96668 201.608 10.3622 201.848 10.9216C201.879 10.9932 201.906 11.0701 201.932 11.1349L197.545 13.047Z" fill="white"/>
<path d="M203.466 8.31331V12.9697L204.19 13.2629L203.778 14.2225L202.98 13.8904C202.8 13.8125 202.678 13.6936 202.585 13.5594C202.497 13.4226 202.431 13.235 202.431 12.9825V8.31331H203.466Z" fill="white"/>
<path d="M205.341 11.7834C205.341 11.387 205.516 11.0314 205.793 10.7897L205.05 9.9618C204.547 10.4072 204.23 11.0574 204.229 11.7823C204.228 12.508 204.545 13.1589 205.048 13.6054L205.79 12.7763C205.515 12.534 205.34 12.1789 205.341 11.7834Z" fill="white"/>
<path d="M206.661 13.1048C206.514 13.1045 206.374 13.0802 206.242 13.0364L205.888 14.0914C206.13 14.1728 206.39 14.2169 206.66 14.2172C207.836 14.2183 208.818 13.3839 209.045 12.2747L207.955 12.0523C207.831 12.6534 207.298 13.1054 206.661 13.1048Z" fill="white"/>
<path d="M206.664 9.35178C206.394 9.35148 206.135 9.39532 205.892 9.47593L206.244 10.5316C206.376 10.4882 206.517 10.4639 206.663 10.4639C207.302 10.4646 207.835 10.9192 207.956 11.5221L209.046 11.3006C208.822 10.1901 207.841 9.35253 206.664 9.35178Z" fill="white"/>
<path d="M52.74 47V40H55.04C55.5867 40 56.0367 40.09 56.39 40.27C56.7433 40.45 57.0033 40.6933 57.17 41C57.3433 41.3067 57.43 41.6533 57.43 42.04C57.43 42.42 57.3467 42.7633 57.18 43.07C57.0133 43.3767 56.7533 43.6233 56.4 43.81C56.0467 43.99 55.5933 44.08 55.04 44.08H53.58V47H52.74ZM53.58 43.37H55.02C55.58 43.37 55.9767 43.2533 56.21 43.02C56.45 42.78 56.57 42.4533 56.57 42.04C56.57 41.62 56.45 41.2933 56.21 41.06C55.9767 40.82 55.58 40.7 55.02 40.7H53.58V43.37ZM59.6966 47.12C59.2833 47.12 58.94 47.05 58.6666 46.91C58.3933 46.77 58.19 46.5833 58.0566 46.35C57.9233 46.1167 57.8566 45.8633 57.8566 45.59C57.8566 45.0833 58.05 44.6933 58.4366 44.42C58.8233 44.1467 59.35 44.01 60.0166 44.01H61.3566V43.95C61.3566 43.5167 61.2433 43.19 61.0166 42.97C60.79 42.7433 60.4866 42.63 60.1066 42.63C59.78 42.63 59.4966 42.7133 59.2566 42.88C59.0233 43.04 58.8766 43.2767 58.8166 43.59H57.9566C57.99 43.23 58.11 42.9267 58.3166 42.68C58.53 42.4333 58.7933 42.2467 59.1066 42.12C59.42 41.9867 59.7533 41.92 60.1066 41.92C60.8 41.92 61.32 42.1067 61.6666 42.48C62.02 42.8467 62.1966 43.3367 62.1966 43.95V47H61.4466L61.3966 46.11C61.2566 46.39 61.05 46.63 60.7766 46.83C60.51 47.0233 60.15 47.12 59.6966 47.12ZM59.8266 46.41C60.1466 46.41 60.42 46.3267 60.6466 46.16C60.88 45.9933 61.0566 45.7767 61.1766 45.51C61.2966 45.2433 61.3566 44.9633 61.3566 44.67V44.66H60.0866C59.5933 44.66 59.2433 44.7467 59.0366 44.92C58.8366 45.0867 58.7366 45.2967 58.7366 45.55C58.7366 45.81 58.83 46.02 59.0166 46.18C59.21 46.3333 59.48 46.41 59.8266 46.41ZM65.2168 45.44C64.9368 45.44 64.6801 45.4033 64.4468 45.33L63.9468 45.8C64.0201 45.8533 64.1101 45.9 64.2168 45.94C64.3301 45.9733 64.4901 46.0067 64.6968 46.04C64.9035 46.0667 65.1935 46.0967 65.5668 46.13C66.2335 46.1767 66.7101 46.33 66.9968 46.59C67.2835 46.85 67.4268 47.19 67.4268 47.61C67.4268 47.8967 67.3468 48.17 67.1868 48.43C67.0335 48.69 66.7935 48.9033 66.4668 49.07C66.1468 49.2367 65.7335 49.32 65.2268 49.32C64.7801 49.32 64.3835 49.26 64.0368 49.14C63.6901 49.0267 63.4201 48.85 63.2268 48.61C63.0335 48.3767 62.9368 48.08 62.9368 47.72C62.9368 47.5333 62.9868 47.33 63.0868 47.11C63.1868 46.8967 63.3735 46.6933 63.6468 46.5C63.5001 46.44 63.3735 46.3767 63.2668 46.31C63.1668 46.2367 63.0735 46.1567 62.9868 46.07V45.84L63.8368 45C63.4435 44.6667 63.2468 44.2267 63.2468 43.68C63.2468 43.3533 63.3235 43.0567 63.4768 42.79C63.6301 42.5233 63.8535 42.3133 64.1468 42.16C64.4401 42 64.7968 41.92 65.2168 41.92C65.5035 41.92 65.7635 41.96 65.9968 42.04H67.8268V42.67L66.8968 42.71C67.0901 42.99 67.1868 43.3133 67.1868 43.68C67.1868 44.0067 67.1068 44.3033 66.9468 44.57C66.7935 44.8367 66.5701 45.05 66.2768 45.21C65.9901 45.3633 65.6368 45.44 65.2168 45.44ZM65.2168 44.75C65.5701 44.75 65.8501 44.66 66.0568 44.48C66.2701 44.2933 66.3768 44.0267 66.3768 43.68C66.3768 43.34 66.2701 43.08 66.0568 42.9C65.8501 42.7133 65.5701 42.62 65.2168 42.62C64.8568 42.62 64.5701 42.7133 64.3568 42.9C64.1501 43.08 64.0468 43.34 64.0468 43.68C64.0468 44.0267 64.1501 44.2933 64.3568 44.48C64.5701 44.66 64.8568 44.75 65.2168 44.75ZM63.7568 47.64C63.7568 47.9733 63.8968 48.22 64.1768 48.38C64.4568 48.5467 64.8068 48.63 65.2268 48.63C65.6401 48.63 65.9701 48.54 66.2168 48.36C66.4701 48.18 66.5968 47.94 66.5968 47.64C66.5968 47.4267 66.5101 47.24 66.3368 47.08C66.1635 46.9267 65.8435 46.8367 65.3768 46.81C65.0101 46.7833 64.6935 46.75 64.4268 46.71C64.1535 46.8567 63.9735 47.0133 63.8868 47.18C63.8001 47.3533 63.7568 47.5067 63.7568 47.64ZM70.2244 47.12C69.811 47.12 69.4677 47.05 69.1944 46.91C68.921 46.77 68.7177 46.5833 68.5844 46.35C68.451 46.1167 68.3844 45.8633 68.3844 45.59C68.3844 45.0833 68.5777 44.6933 68.9644 44.42C69.351 44.1467 69.8777 44.01 70.5444 44.01H71.8844V43.95C71.8844 43.5167 71.771 43.19 71.5444 42.97C71.3177 42.7433 71.0144 42.63 70.6344 42.63C70.3077 42.63 70.0244 42.7133 69.7844 42.88C69.551 43.04 69.4044 43.2767 69.3444 43.59H68.4844C68.5177 43.23 68.6377 42.9267 68.8444 42.68C69.0577 42.4333 69.321 42.2467 69.6344 42.12C69.9477 41.9867 70.281 41.92 70.6344 41.92C71.3277 41.92 71.8477 42.1067 72.1944 42.48C72.5477 42.8467 72.7244 43.3367 72.7244 43.95V47H71.9744L71.9244 46.11C71.7844 46.39 71.5777 46.63 71.3044 46.83C71.0377 47.0233 70.6777 47.12 70.2244 47.12ZM70.3544 46.41C70.6744 46.41 70.9477 46.3267 71.1744 46.16C71.4077 45.9933 71.5844 45.7767 71.7044 45.51C71.8244 45.2433 71.8844 44.9633 71.8844 44.67V44.66H70.6144C70.121 44.66 69.771 44.7467 69.5644 44.92C69.3644 45.0867 69.2644 45.2967 69.2644 45.55C69.2644 45.81 69.3577 46.02 69.5444 46.18C69.7377 46.3333 70.0077 46.41 70.3544 46.41ZM73.7845 47V42.04H74.5445L74.6045 42.76C74.7645 42.4933 74.9779 42.2867 75.2445 42.14C75.5112 41.9933 75.8112 41.92 76.1445 41.92C76.5379 41.92 76.8745 42 77.1545 42.16C77.4412 42.32 77.6612 42.5633 77.8145 42.89C77.9879 42.59 78.2245 42.3533 78.5245 42.18C78.8312 42.0067 79.1612 41.92 79.5145 41.92C80.1079 41.92 80.5812 42.1 80.9345 42.46C81.2879 42.8133 81.4645 43.36 81.4645 44.1V47H80.6345V44.19C80.6345 43.6767 80.5312 43.29 80.3245 43.03C80.1179 42.77 79.8212 42.64 79.4345 42.64C79.0345 42.64 78.7012 42.7967 78.4345 43.11C78.1745 43.4167 78.0445 43.8567 78.0445 44.43V47H77.2045V44.19C77.2045 43.6767 77.1012 43.29 76.8945 43.03C76.6879 42.77 76.3912 42.64 76.0045 42.64C75.6112 42.64 75.2812 42.7967 75.0145 43.11C74.7545 43.4167 74.6245 43.8567 74.6245 44.43V47H73.7845ZM84.7598 47.12C84.2865 47.12 83.8665 47.0133 83.4998 46.8C83.1332 46.58 82.8432 46.2767 82.6298 45.89C82.4232 45.5033 82.3198 45.0467 82.3198 44.52C82.3198 44 82.4232 43.5467 82.6298 43.16C82.8365 42.7667 83.1232 42.4633 83.4898 42.25C83.8632 42.03 84.2932 41.92 84.7798 41.92C85.2598 41.92 85.6732 42.03 86.0198 42.25C86.3732 42.4633 86.6432 42.7467 86.8298 43.1C87.0165 43.4533 87.1098 43.8333 87.1098 44.24C87.1098 44.3133 87.1065 44.3867 87.0998 44.46C87.0998 44.5333 87.0998 44.6167 87.0998 44.71H83.1498C83.1698 45.09 83.2565 45.4067 83.4098 45.66C83.5698 45.9067 83.7665 46.0933 83.9998 46.22C84.2398 46.3467 84.4932 46.41 84.7598 46.41C85.1065 46.41 85.3965 46.33 85.6298 46.17C85.8632 46.01 86.0332 45.7933 86.1398 45.52H86.9698C86.8365 45.98 86.5798 46.3633 86.1998 46.67C85.8265 46.97 85.3465 47.12 84.7598 47.12ZM84.7598 42.63C84.3598 42.63 84.0032 42.7533 83.6898 43C83.3832 43.24 83.2065 43.5933 83.1598 44.06H86.2798C86.2598 43.6133 86.1065 43.2633 85.8198 43.01C85.5332 42.7567 85.1798 42.63 84.7598 42.63ZM88.0232 47V42.04H88.7832L88.8332 42.93C88.9932 42.6167 89.2232 42.37 89.5232 42.19C89.8232 42.01 90.1632 41.92 90.5432 41.92C91.1299 41.92 91.5965 42.1 91.9432 42.46C92.2965 42.8133 92.4732 43.36 92.4732 44.1V47H91.6332V44.19C91.6332 43.1567 91.2065 42.64 90.3532 42.64C89.9265 42.64 89.5699 42.7967 89.2832 43.11C89.0032 43.4167 88.8632 43.8567 88.8632 44.43V47H88.0232ZM95.5059 47C95.0525 47 94.6959 46.89 94.4359 46.67C94.1759 46.45 94.0459 46.0533 94.0459 45.48V42.75H93.1859V42.04H94.0459L94.1559 40.85H94.8859V42.04H96.3459V42.75H94.8859V45.48C94.8859 45.7933 94.9492 46.0067 95.0759 46.12C95.2025 46.2267 95.4259 46.28 95.7459 46.28H96.2659V47H95.5059ZM99.3363 47.12C98.8697 47.12 98.4497 47.0133 98.0763 46.8C97.703 46.5867 97.4063 46.2867 97.1863 45.9C96.973 45.5067 96.8663 45.0467 96.8663 44.52C96.8663 43.9933 96.9763 43.5367 97.1963 43.15C97.4163 42.7567 97.713 42.4533 98.0863 42.24C98.4663 42.0267 98.8897 41.92 99.3563 41.92C99.823 41.92 100.243 42.0267 100.616 42.24C100.99 42.4533 101.283 42.7567 101.496 43.15C101.716 43.5367 101.826 43.9933 101.826 44.52C101.826 45.0467 101.716 45.5067 101.496 45.9C101.276 46.2867 100.976 46.5867 100.596 46.8C100.223 47.0133 99.803 47.12 99.3363 47.12ZM99.3363 46.4C99.623 46.4 99.8897 46.33 100.136 46.19C100.383 46.05 100.583 45.84 100.736 45.56C100.89 45.28 100.966 44.9333 100.966 44.52C100.966 44.1067 100.89 43.76 100.736 43.48C100.59 43.2 100.393 42.99 100.146 42.85C99.8997 42.71 99.6363 42.64 99.3563 42.64C99.0697 42.64 98.803 42.71 98.5563 42.85C98.3097 42.99 98.1097 43.2 97.9563 43.48C97.803 43.76 97.7263 44.1067 97.7263 44.52C97.7263 44.9333 97.803 45.28 97.9563 45.56C98.1097 45.84 98.3063 46.05 98.5463 46.19C98.793 46.33 99.0563 46.4 99.3363 46.4ZM104.694 47.12C104.101 47.12 103.608 46.97 103.214 46.67C102.821 46.37 102.591 45.9633 102.524 45.45H103.384C103.438 45.71 103.574 45.9367 103.794 46.13C104.021 46.3167 104.324 46.41 104.704 46.41C105.058 46.41 105.318 46.3367 105.484 46.19C105.651 46.0367 105.734 45.8567 105.734 45.65C105.734 45.35 105.624 45.15 105.404 45.05C105.191 44.95 104.888 44.86 104.494 44.78C104.228 44.7267 103.961 44.65 103.694 44.55C103.428 44.45 103.204 44.31 103.024 44.13C102.844 43.9433 102.754 43.7 102.754 43.4C102.754 42.9667 102.914 42.6133 103.234 42.34C103.561 42.06 104.001 41.92 104.554 41.92C105.081 41.92 105.511 42.0533 105.844 42.32C106.184 42.58 106.381 42.9533 106.434 43.44H105.604C105.571 43.1867 105.461 42.99 105.274 42.85C105.094 42.7033 104.851 42.63 104.544 42.63C104.244 42.63 104.011 42.6933 103.844 42.82C103.684 42.9467 103.604 43.1133 103.604 43.32C103.604 43.52 103.708 43.6767 103.914 43.79C104.128 43.9033 104.414 44 104.774 44.08C105.081 44.1467 105.371 44.23 105.644 44.33C105.924 44.4233 106.151 44.5667 106.324 44.76C106.504 44.9467 106.594 45.22 106.594 45.58C106.601 46.0267 106.431 46.3967 106.084 46.69C105.744 46.9767 105.281 47.12 104.694 47.12ZM110.041 49.2V42.04H110.801L110.881 42.86C111.041 42.62 111.267 42.4033 111.561 42.21C111.861 42.0167 112.241 41.92 112.701 41.92C113.194 41.92 113.624 42.0333 113.991 42.26C114.357 42.4867 114.641 42.7967 114.841 43.19C115.047 43.5833 115.151 44.03 115.151 44.53C115.151 45.03 115.047 45.4767 114.841 45.87C114.641 46.2567 114.354 46.5633 113.981 46.79C113.614 47.01 113.184 47.12 112.691 47.12C112.284 47.12 111.921 47.0367 111.601 46.87C111.287 46.7033 111.047 46.47 110.881 46.17V49.2H110.041ZM112.601 46.39C112.934 46.39 113.227 46.3133 113.481 46.16C113.734 46 113.934 45.78 114.081 45.5C114.227 45.22 114.301 44.8933 114.301 44.52C114.301 44.1467 114.227 43.82 114.081 43.54C113.934 43.26 113.734 43.0433 113.481 42.89C113.227 42.73 112.934 42.65 112.601 42.65C112.267 42.65 111.974 42.73 111.721 42.89C111.467 43.0433 111.267 43.26 111.121 43.54C110.974 43.82 110.901 44.1467 110.901 44.52C110.901 44.8933 110.974 45.22 111.121 45.5C111.267 45.78 111.467 46 111.721 46.16C111.974 46.3133 112.267 46.39 112.601 46.39ZM118.38 47.12C117.913 47.12 117.493 47.0133 117.12 46.8C116.747 46.5867 116.45 46.2867 116.23 45.9C116.017 45.5067 115.91 45.0467 115.91 44.52C115.91 43.9933 116.02 43.5367 116.24 43.15C116.46 42.7567 116.757 42.4533 117.13 42.24C117.51 42.0267 117.933 41.92 118.4 41.92C118.867 41.92 119.287 42.0267 119.66 42.24C120.033 42.4533 120.327 42.7567 120.54 43.15C120.76 43.5367 120.87 43.9933 120.87 44.52C120.87 45.0467 120.76 45.5067 120.54 45.9C120.32 46.2867 120.02 46.5867 119.64 46.8C119.267 47.0133 118.847 47.12 118.38 47.12ZM118.38 46.4C118.667 46.4 118.933 46.33 119.18 46.19C119.427 46.05 119.627 45.84 119.78 45.56C119.933 45.28 120.01 44.9333 120.01 44.52C120.01 44.1067 119.933 43.76 119.78 43.48C119.633 43.2 119.437 42.99 119.19 42.85C118.943 42.71 118.68 42.64 118.4 42.64C118.113 42.64 117.847 42.71 117.6 42.85C117.353 42.99 117.153 43.2 117 43.48C116.847 43.76 116.77 44.1067 116.77 44.52C116.77 44.9333 116.847 45.28 117 45.56C117.153 45.84 117.35 46.05 117.59 46.19C117.837 46.33 118.1 46.4 118.38 46.4ZM121.838 47V42.04H122.598L122.668 42.99C122.821 42.6633 123.055 42.4033 123.368 42.21C123.681 42.0167 124.068 41.92 124.528 41.92V42.8H124.298C124.005 42.8 123.735 42.8533 123.488 42.96C123.241 43.06 123.045 43.2333 122.898 43.48C122.751 43.7267 122.678 44.0667 122.678 44.5V47H121.838Z" fill="#E1DEE8"/>
<g clip-path="url(#clip0_1_462)">
<path fill-rule="evenodd" clip-rule="evenodd" d="M157.721 41.9972H157.294C157.068 41.998 156.851 42.085 156.691 42.2393C156.531 42.3936 156.441 42.6026 156.44 42.8208V44.9912C156.467 45.5566 156.719 46.0902 157.144 46.4812C157.568 46.8722 158.133 47.0904 158.72 47.0904C159.307 47.0904 159.872 46.8722 160.297 46.4812C160.721 46.0902 160.973 45.5566 161 44.9912V41.9972H160.573C160.347 41.998 160.13 42.085 159.97 42.2393C159.81 42.3936 159.72 42.6026 159.719 42.8208V44.9912C159.719 45.2464 159.614 45.4912 159.426 45.6717C159.239 45.8521 158.985 45.9535 158.72 45.9535C158.455 45.9535 158.201 45.8521 158.014 45.6717C157.827 45.4912 157.721 45.2464 157.721 44.9912V41.9972ZM153.174 43.0452C153.908 43.0452 154.197 43.5829 154.197 44.2586C154.197 44.9343 153.735 45.472 153.012 45.472C152.333 45.472 151.989 45.0041 151.989 44.2723C151.989 43.5404 152.516 43.043 153.176 43.043L153.174 43.0452ZM154.197 46.4116V46.291C153.941 46.5337 153.573 46.7096 153.012 46.7096C151.548 46.7096 150.704 45.6161 150.704 44.2745C150.704 42.9201 151.748 41.8099 153.172 41.8099C154.655 41.8099 155.478 42.9193 155.478 44.2616C155.478 44.3049 155.478 44.3473 155.478 44.389V46.401C155.478 47.8472 154.455 48.6988 152.999 48.6988C152.016 48.6988 151.127 48.375 151.127 47.6014V47.1904C151.575 47.434 152.075 47.5744 152.589 47.6007C153.264 47.6477 154.197 47.5438 154.197 46.4123V46.4116ZM146.66 41.9972H146.232C146.006 41.998 145.789 42.085 145.629 42.2393C145.469 42.3936 145.379 42.6026 145.379 42.8208V44.9912C145.365 45.2881 145.413 45.5847 145.521 45.863C145.63 46.1413 145.795 46.3956 146.008 46.6105C146.221 46.8254 146.478 46.9965 146.761 47.1133C147.045 47.2302 147.35 47.2904 147.658 47.2904C147.967 47.2904 148.272 47.2302 148.556 47.1133C148.839 46.9965 149.095 46.8254 149.309 46.6105C149.522 46.3956 149.687 46.1413 149.796 45.863C149.904 45.5847 149.952 45.2881 149.938 44.9912V41.9972H149.512C149.285 41.998 149.068 42.085 148.908 42.2393C148.748 42.3936 148.658 42.6026 148.657 42.8208V44.9912C148.657 45.2464 148.552 45.4912 148.365 45.6717C148.177 45.8521 147.923 45.9535 147.658 45.9535C147.394 45.9535 147.14 45.8521 146.952 45.6717C146.765 45.4912 146.66 45.2464 146.66 44.9912V41.9972ZM144.418 41.9972H143.99C143.764 41.998 143.547 42.085 143.387 42.2393C143.227 42.3936 143.137 42.6026 143.136 42.8208V46.1795C143.137 46.3977 143.227 46.6067 143.387 46.761C143.547 46.9153 143.764 47.0023 143.99 47.0031H144.418V41.9979V41.9972ZM143.454 40.3015H144.099C144.182 40.3027 144.261 40.335 144.32 40.3916C144.379 40.4483 144.413 40.5247 144.414 40.6048V41.2267C144.413 41.3068 144.379 41.3832 144.32 41.4399C144.261 41.4965 144.182 41.5288 144.099 41.53H143.454C143.371 41.5298 143.29 41.4979 143.231 41.4412C143.171 41.3845 143.137 41.3074 143.136 41.2267V40.6079C143.137 40.5271 143.171 40.4501 143.231 40.3933C143.29 40.3366 143.371 40.3047 143.454 40.3045V40.3015Z" fill="#E1DEE8"/>
<path fill-rule="evenodd" clip-rule="evenodd" d="M140.156 45.4794C140.455 45.4438 140.581 45.3505 140.573 45.0184C140.565 44.716 140.536 44.4145 140.486 44.1159C140.307 43.1475 139.865 42.3194 139.161 41.7066C138.386 41.0309 137.317 40.6449 135.966 40.6487C135.573 40.6535 135.184 40.5758 134.826 40.4212C134.466 40.262 134.147 40.0297 133.889 39.7402L133.466 39.2745C133.32 39.1136 133.114 39.0153 132.892 39.001C132.671 38.9868 132.453 39.0579 132.286 39.1987C132.119 39.3395 132.017 39.5384 132.002 39.7518C131.987 39.9651 132.061 40.1753 132.207 40.3363L132.63 40.8011C133.046 41.2641 133.56 41.6357 134.137 41.8909C134.714 42.1408 135.34 42.2671 135.972 42.261C136.879 42.2541 137.569 42.4885 138.041 42.8995C138.496 43.2954 138.772 43.8778 138.865 44.5831C138.96 45.3164 139.446 45.5629 140.156 45.4794ZM132.981 43.5206C133.69 43.4372 134.178 43.6836 134.273 44.417C134.366 45.1223 134.642 45.7062 135.098 46.1005C135.57 46.5101 136.257 46.7459 137.166 46.7421C137.797 46.735 138.423 46.8602 138.999 47.1092C139.577 47.3644 140.091 47.736 140.507 48.1989L140.931 48.6646C141.077 48.8255 141.15 49.0357 141.136 49.249C141.121 49.4624 141.019 49.6613 140.852 49.8021C140.685 49.9429 140.467 50.014 140.245 49.9998C140.024 49.9855 139.818 49.8872 139.671 49.7263L139.248 49.2599C138.99 48.9702 138.67 48.7375 138.311 48.5773C137.953 48.4227 137.564 48.345 137.171 48.3498C135.82 48.3559 134.751 47.9707 133.975 47.2881C133.272 46.6761 132.829 45.8472 132.651 44.8796C132.601 44.581 132.572 44.2795 132.563 43.9771C132.556 43.645 132.682 43.5517 132.981 43.5161L132.981 43.5206ZM136.119 43.6389H137.019C137.136 43.6391 137.249 43.6842 137.332 43.7644C137.415 43.8446 137.462 43.9532 137.462 44.0666V44.9334C137.462 45.0468 137.415 45.1555 137.332 45.2356C137.249 45.3158 137.136 45.3609 137.019 45.3611H136.119C136.001 45.3609 135.889 45.3158 135.805 45.2356C135.722 45.1555 135.675 45.0468 135.675 44.9334V44.0666C135.675 43.9532 135.722 43.8446 135.805 43.7644C135.889 43.6842 136.001 43.6391 136.119 43.6389Z" fill="#E1DEE8"/>
</g>
<defs>
<clipPath id="clip0_1_462">
<rect width="29" height="11" fill="white" transform="translate(132 39)"/>
</clipPath>
</defs>
</svg>
