<svg width="42" height="29" viewBox="0 0 42 29" fill="none" xmlns="http://www.w3.org/2000/svg">
<path d="M41.3879 6.4234C41.3879 9.14118 39.2352 11.3444 36.5797 11.3444C33.9241 11.3444 31.7714 9.14118 31.7714 6.4234C31.7714 3.70561 33.9241 1.50241 36.5797 1.50241C39.2352 1.50241 41.3879 3.70561 41.3879 6.4234Z" fill="#F5850B"/>
<path d="M2.75334 8.74773C1.56009 6.32906 2.55349 3.40103 4.97216 2.20778C7.39083 1.01453 10.3189 2.00793 11.5121 4.4266L19.2901 20.1924C20.4834 22.6111 19.49 25.5391 17.0713 26.7323C14.6527 27.9256 11.7246 26.9322 10.5314 24.5135L2.75334 8.74773Z" fill="#191847"/>
<path d="M17.4452 8.74773C16.252 6.32906 17.2454 3.40103 19.6641 2.20778C22.0827 1.01453 25.0108 2.00793 26.204 4.4266L33.982 20.1924C35.1753 22.6111 34.1819 25.5391 31.7632 26.7323C29.3446 27.9256 26.4165 26.9322 25.2233 24.5135L17.4452 8.74773Z" fill="#191847"/>
<path d="M17.1976 4.50826C18.2342 2.01841 21.0929 0.840306 23.5827 1.87688C26.0726 2.91344 27.2507 5.77217 26.2141 8.26201L19.4574 24.4917C18.4208 26.9816 15.5621 28.1597 13.0722 27.1231C10.5824 26.0866 9.40427 23.2278 10.4408 20.738L17.1976 4.50826Z" fill="#191847"/>
</svg>
