<svg width="40" height="40" viewBox="0 0 40 40" fill="none" xmlns="http://www.w3.org/2000/svg">
<circle cx="20" cy="20" r="20" fill="#E1DEE8"/>
<path d="M20 25.91L17.5287 27.2093C16.4288 27.7875 15.0684 27.3646 14.4901 26.2647C14.2599 25.8268 14.1804 25.3251 14.2641 24.8374L14.736 22.0856L12.7367 20.1367C11.8469 19.2694 11.8287 17.8449 12.6961 16.955C13.0415 16.6007 13.494 16.3701 13.9837 16.2989L16.7467 15.8974L17.9823 13.3938C18.5323 12.2794 19.8814 11.8219 20.9957 12.3719C21.4395 12.5909 21.7986 12.95 22.0176 13.3938L23.2533 15.8974L26.0162 16.2989C27.246 16.4776 28.098 17.6194 27.9193 18.8491C27.8481 19.3388 27.6175 19.7913 27.2632 20.1367L25.2639 22.0856L25.7359 24.8374C25.9459 26.0621 25.1234 27.2253 23.8986 27.4353C23.4109 27.519 22.9092 27.4395 22.4712 27.2093L20 25.91ZM19.651 24.3989C19.8695 24.284 20.1305 24.284 20.349 24.3989L23.1692 25.8816C23.3152 25.9583 23.4825 25.9848 23.645 25.9569C24.0533 25.8869 24.3275 25.4992 24.2575 25.0909L23.7188 21.9505C23.6771 21.7072 23.7578 21.459 23.9345 21.2867L26.2162 19.0626C26.3343 18.9475 26.4112 18.7966 26.4349 18.6334C26.4944 18.2235 26.2104 17.8429 25.8005 17.7833L22.6474 17.3252C22.4031 17.2897 22.1919 17.1362 22.0827 16.9149L20.6725 14.0576C20.5995 13.9097 20.4798 13.79 20.3319 13.717C19.9604 13.5337 19.5107 13.6862 19.3274 14.0576L17.9173 16.9149C17.808 17.1362 17.5969 17.2897 17.3526 17.3252L14.1994 17.7833C14.0362 17.8071 13.8853 17.8839 13.7702 18.002C13.4811 18.2986 13.4871 18.7735 13.7837 19.0626L16.0654 21.2867C16.2422 21.459 16.3228 21.7072 16.2811 21.9505L15.7425 25.0909C15.7146 25.2535 15.7411 25.4207 15.8178 25.5667C16.0106 25.9334 16.464 26.0743 16.8307 25.8816L19.651 24.3989Z" fill="#191847"/>
</svg>
